<svg width="630" height="637" viewBox="0 0 630 637" fill="none" xmlns="http://www.w3.org/2000/svg">
  <g filter="url(#filter0_d_8_3327)">
    <path
      d="M555.794 370.924C556.262 373.055 556.354 375.263 555.94 377.532C538.654 471.564 429.068 499.152 429.068 499.152V370.924H411.184V527.729C411.184 527.729 552.996 491.939 579.281 370.924H555.794Z"
      fill="#C52E2A" />
    <path
      d="M429.068 369.49V351.883H525.599C540.172 351.883 552.314 359.525 555.426 369.49H579.595C579.879 368.134 580.224 366.823 580.484 365.443C583.819 347.307 564.433 331.224 539.995 331.224H411.177V369.498H429.068V369.49Z"
      fill="#F3807F" />
    <path
      d="M546.151 345.643H429.988V532.597C429.988 532.597 561.857 497.573 582.661 378.198C585.674 360.936 568.181 345.643 546.151 345.643ZM560.539 389.697C544.947 479.161 446.116 505.407 446.116 505.407V365.297H533.165C549.684 365.297 562.792 376.765 560.539 389.697Z"
      fill="#D93D0F" />
    <path
      d="M519.222 303.644H28.0701C28.0701 430.906 82.4338 542.524 153.056 598.612C153.148 598.697 153.255 598.773 153.347 598.858C154.053 599.417 154.727 600.053 155.44 600.598H155.601C176.605 617.04 221.494 628.431 273.642 628.431C325.79 628.431 370.68 617.04 391.683 600.598H391.844C392.549 600.053 393.232 599.41 393.937 598.858C394.029 598.773 394.136 598.697 394.228 598.612C464.85 542.524 519.222 430.914 519.222 303.644Z"
      fill="#D93D0F" />
    <path
      d="M163.565 323.329L117.059 311.332C91.6171 409.926 121.949 509.976 179.119 571.07C179.195 571.154 179.28 571.246 179.349 571.331C179.916 571.936 180.453 572.603 181.027 573.201L181.188 573.24C189.368 581.871 203.15 590.962 220.804 599.54C164.899 530.627 137.005 426.276 163.565 323.329Z"
      fill="white" />
    <path
      d="M163.09 600.598H162.929C162.224 600.053 161.542 599.409 160.837 598.858C160.745 598.773 160.637 598.697 160.545 598.612C89.923 542.524 35.5593 430.914 35.5593 303.644H28.0778C28.0778 430.906 82.4415 542.524 153.064 598.612C153.156 598.697 153.263 598.773 153.355 598.858C154.06 599.417 154.735 600.053 155.448 600.598H155.609C169.951 611.82 195.431 620.689 226.752 625.189C221.409 623.901 216.335 622.475 211.544 620.927C190.671 616.013 173.776 608.961 163.09 600.598Z"
      fill="white" />
    <path
      d="M490.622 303.644C490.622 432.777 436.258 546.027 365.636 602.936C365.544 603.02 365.436 603.097 365.344 603.181C364.639 603.748 363.965 604.392 363.252 604.952H363.091C351.784 613.936 333.51 621.402 310.95 626.415C346.641 622.452 375.908 612.954 391.683 600.598H391.844C392.549 600.053 393.232 599.41 393.937 598.858C394.029 598.773 394.136 598.697 394.228 598.612C464.85 542.524 519.214 430.914 519.214 303.644H490.622Z"
      fill="#F0301E" />
    <path
      d="M28.0701 303.644C28.0701 327.896 53.9428 351.154 99.9965 368.303C146.05 385.452 208.512 395.086 273.642 395.086C338.772 395.086 401.234 385.452 447.288 368.303C493.341 351.154 519.214 327.896 519.214 303.644C519.214 279.392 493.341 256.133 447.288 238.985C401.234 221.836 338.772 212.202 273.642 212.202C208.512 212.202 146.05 221.836 99.9965 238.985C53.9428 256.133 28.0701 279.392 28.0701 303.644Z"
      fill="#F3807F" />
    <path
      d="M43.0408 303.644C43.0408 323.927 67.3362 343.38 110.582 357.722C153.828 372.065 212.483 380.123 273.642 380.123C334.801 380.123 393.456 372.065 436.702 357.722C479.948 343.38 504.243 323.927 504.243 303.644C504.243 283.36 479.948 263.908 436.702 249.565C393.456 235.223 334.801 227.165 273.642 227.165C212.483 227.165 153.828 235.223 110.582 249.565C67.3362 263.908 43.0408 283.36 43.0408 303.644Z"
      fill="#F0301E" />
    <path
      d="M273.642 380.123C367.1 380.123 447.511 361.672 483.731 335.172C470.362 300.631 381.434 273.932 273.642 273.932C165.85 273.932 76.9223 300.631 63.5537 335.172C99.7732 361.672 180.184 380.123 273.642 380.123Z"
      fill="#F5F5DC" />
    <path
      d="M234.264 331.362C234.333 323.927 257.353 318.469 285.677 319.182C306.619 319.703 324.572 323.459 332.49 328.38C329.846 321.543 308.099 315.725 281.607 315.058C253.283 314.352 230.263 319.803 230.194 327.238C230.179 329.178 231.75 331.056 234.54 332.788C234.356 332.313 234.257 331.837 234.264 331.362Z"
      fill="white" />
    <path
      d="M388.548 327.905C390.518 330.067 391.591 332.282 391.422 334.536C390.38 348.41 346.641 358.023 293.71 356.014C259.262 354.704 229.504 348.778 213.146 340.982C223.287 352.113 259.89 361.426 304.22 363.113C357.142 365.129 400.889 355.509 401.932 341.634C402.3 336.789 397.317 332.083 388.548 327.905Z"
      fill="white" />
    <path
      d="M428.041 609.75H329.225C321.651 609.75 315.718 603.219 316.454 595.676L329.14 464.911C329.662 459.53 334.184 455.428 339.588 455.428H417.684C423.089 455.428 427.611 459.53 428.133 464.911L440.819 595.676C441.54 603.227 435.614 609.75 428.041 609.75Z"
      fill="#78D746" />
    <path
      d="M428.125 464.918C427.726 460.81 424.982 457.483 421.303 456.118C422.069 457.383 422.629 458.778 422.79 460.304L434.372 595.293C435.185 603.043 428.6 609.75 420.176 609.75H428.041C435.614 609.75 441.547 603.219 440.811 595.676L428.125 464.918Z"
      fill="#50AB1F" />
    <path
      d="M418.995 591.468H333.977C331.31 591.468 329.202 589.084 329.416 586.302L333.648 531.371C333.839 528.879 335.825 526.963 338.216 526.963H414.358C416.734 526.963 418.712 528.856 418.926 531.332L423.549 586.263C423.786 589.061 421.678 591.468 418.995 591.468Z"
      fill="#50AB1F" />
    <path
      d="M377.165 484.918C373.547 484.918 370.611 481.982 370.611 478.364C370.611 437.897 360.53 388.018 312.506 380.222C308.934 379.64 306.512 376.274 307.087 372.702C307.669 369.138 311.027 366.693 314.606 367.283C359.166 374.519 383.711 413.966 383.711 478.356C383.711 481.989 380.783 484.918 377.165 484.918Z"
      fill="#69C03F" />
    <path
      d="M105.883 428.277C100.616 430.025 94.9286 427.166 93.1809 421.899C91.4332 416.633 94.2924 410.945 99.5586 409.198C104.825 407.45 110.513 410.309 112.26 415.575C114 420.849 111.149 426.529 105.883 428.277Z"
      fill="white" />
    <mask id="mask0_8_3327" style="mask-type:luminance" maskUnits="userSpaceOnUse" x="103" y="29"
      width="444" height="304">
      <path
        d="M359.344 29L103 307.688L131.031 332.875C249.256 299.378 310.834 297.647 425.969 323.938L546.625 191.906L359.344 29Z"
        fill="white" />
    </mask>
    <g mask="url(#mask0_8_3327)">
      <g filter="url(#filter1_d_8_3327)">
        <path
          d="M522.901 186.235C526.018 188.987 526.315 193.764 523.556 196.89L293.716 457.251C290.958 460.376 286.188 460.666 283.071 457.914L124.584 318.007C121.459 315.247 121.159 310.483 123.918 307.357L353.757 46.9959C356.516 43.8704 361.289 43.5687 364.414 46.3278L522.901 186.235Z"
          fill="#50AB1F" />
      </g>
      <path
        d="M364.414 46.3278L124.585 318.006L135.906 328L328.233 264.744C332.181 263.464 336.045 259.087 336.826 255.01L375.737 56.3223L364.414 46.3278Z"
        fill="#36A63B" />
      <path
        d="M353.757 46.996L123.918 307.357C121.159 310.483 121.459 315.247 124.584 318.007L316.908 254.746C320.864 253.475 324.728 249.097 325.501 245.012L364.415 46.3284C361.289 43.5688 356.516 43.8705 353.757 46.996Z"
        fill="#19C219" />
    </g>
  </g>
  <defs>
    <filter id="filter0_d_8_3327" x="-4" y="0" width="638" height="638" filterUnits="userSpaceOnUse"
      color-interpolation-filters="sRGB">
      <feFlood flood-opacity="0" result="BackgroundImageFix" />
      <feColorMatrix in="SourceAlpha" type="matrix"
        values="0 0 0 0 0 0 0 0 0 0 0 0 0 0 0 0 0 0 127 0" result="hardAlpha" />
      <feOffset dy="4" />
      <feGaussianBlur stdDeviation="2" />
      <feComposite in2="hardAlpha" operator="out" />
      <feColorMatrix type="matrix" values="0 0 0 0 0 0 0 0 0 0 0 0 0 0 0 0 0 0 0.25 0" />
      <feBlend mode="normal" in2="BackgroundImageFix" result="effect1_dropShadow_8_3327" />
      <feBlend mode="normal" in="SourceGraphic" in2="effect1_dropShadow_8_3327" result="shape" />
    </filter>
    <filter id="filter1_d_8_3327" x="118.03" y="44.4402" width="411.417" height="423.361"
      filterUnits="userSpaceOnUse" color-interpolation-filters="sRGB">
      <feFlood flood-opacity="0" result="BackgroundImageFix" />
      <feColorMatrix in="SourceAlpha" type="matrix"
        values="0 0 0 0 0 0 0 0 0 0 0 0 0 0 0 0 0 0 127 0" result="hardAlpha" />
      <feOffset dy="4" />
      <feGaussianBlur stdDeviation="2" />
      <feComposite in2="hardAlpha" operator="out" />
      <feColorMatrix type="matrix" values="0 0 0 0 0 0 0 0 0 0 0 0 0 0 0 0 0 0 0.25 0" />
      <feBlend mode="normal" in2="BackgroundImageFix" result="effect1_dropShadow_8_3327" />
      <feBlend mode="normal" in="SourceGraphic" in2="effect1_dropShadow_8_3327" result="shape" />
    </filter>
  </defs>
</svg>
